<svg width="22" height="22" viewBox="0 0 22 22" fill="none" xmlns="http://www.w3.org/2000/svg">
<path fill-rule="evenodd" clip-rule="evenodd" d="M20.8388 0.292893C21.2293 0.683417 21.2293 1.31658 20.8388 1.70711L11.7501 10.7958L20.799 19.8447C21.1895 20.2353 21.1895 20.8684 20.799 21.259C20.4085 21.6495 19.7753 21.6495 19.3848 21.259L10.3358 12.21L1.74688 20.799C1.35636 21.1895 0.723191 21.1895 0.332667 20.799C-0.0578575 20.4085 -0.0578571 19.7753 0.332667 19.3848L8.92163 10.7958L0.292893 2.16707C-0.0976309 1.77654 -0.0976313 1.14338 0.292893 0.752854C0.683417 0.36233 1.31658 0.36233 1.70711 0.752854L10.3358 9.38159L19.4245 0.292893C19.8151 -0.0976311 20.4482 -0.0976311 20.8388 0.292893Z" fill="#F2994A"/>
</svg>
